# This file uses centimeters as units for non-parametric coordinates.

mtllib switch.mtl
g default
v -106.655490 140.000000 196.531192
v -91.655475 140.000000 196.531192
v -106.655490 159.250086 196.531192
v -91.655475 159.250086 196.531192
v -106.655490 159.250086 193.031036
v -105.155641 159.250070 191.531192
v -93.155324 159.250070 191.531192
v -91.655475 159.250086 193.031036
v -105.155641 141.499853 191.531192
v -106.655490 140.000000 193.031036
v -93.155324 141.499853 191.531192
v -91.655475 140.000000 193.031036
vt 0.194636 0.005411
vt 0.202794 0.806756
vt 0.494721 0.461100
vt 0.257454 0.746957
vt 0.480576 0.268640
vt 0.185879 0.468527
vt 0.253489 0.526243
vt 0.430111 0.511736
vt 0.449572 0.728799
vt 0.509347 0.793287
vt 0.509271 0.988112
vt 0.217257 1.000000
vt 0.476086 0.001994
vt 0.670722 0.000000
vt 0.674256 0.266806
vt 0.000000 0.007405
vt 0.195409 0.272679
vt 0.001728 0.274513
vn 0.000000 0.000000 1.000000
vn 0.000000 0.000000 1.000000
vn 0.000000 0.000000 1.000000
vn 0.000000 0.000000 1.000000
vn -0.707106 0.000000 -0.707108
vn -0.707106 0.000000 -0.707108
vn -0.707106 0.000000 -0.707108
vn -0.707106 0.000000 -0.707108
vn 0.000000 1.000000 -0.000010
vn 0.000000 1.000000 -0.000010
vn 0.000000 1.000000 -0.000010
vn 0.000000 1.000000 -0.000010
vn 0.707106 0.000000 -0.707108
vn 0.707106 0.000000 -0.707108
vn 0.707106 0.000000 -0.707108
vn 0.707106 0.000000 -0.707108
vn 0.000000 -0.707105 -0.707109
vn 0.000000 -0.707105 -0.707109
vn 0.000000 -0.707105 -0.707109
vn 0.000000 -0.707105 -0.707109
vn 0.000000 1.000000 0.000000
vn 0.000000 1.000000 0.000000
vn 0.000000 1.000000 0.000000
vn 0.000000 1.000000 0.000000
vn 0.000000 0.000000 -1.000000
vn 0.000000 0.000000 -1.000000
vn 0.000000 0.000000 -1.000000
vn 0.000000 0.000000 -1.000000
vn 0.000000 -1.000000 0.000000
vn 0.000000 -1.000000 0.000000
vn 0.000000 -1.000000 0.000000
vn 0.000000 -1.000000 0.000000
vn 1.000000 0.000000 0.000000
vn 1.000000 0.000000 0.000000
vn 1.000000 0.000000 0.000000
vn 1.000000 0.000000 0.000000
vn -1.000000 0.000000 0.000000
vn -1.000000 0.000000 0.000000
vn -1.000000 0.000000 0.000000
vn -1.000000 0.000000 0.000000
s off
g door_switch wall
usemtl initialShadingGroup
f 1/1/1 2/13/2 4/5/3 3/17/4
f 5/6/5 6/7/6 9/4/7 10/2/8
f 6/7/9 5/6/10 8/3/11 7/8/12
f 7/8/13 8/3/14 12/10/15 11/9/16
f 10/2/17 9/4/18 11/9/19 12/10/20
f 3/17/21 4/5/22 8/3/23 5/6/24
f 6/7/25 7/8/26 11/9/27 9/4/28
f 10/2/29 12/10/30 2/11/31 1/12/32
f 2/13/33 12/14/34 8/15/35 4/5/36
f 10/16/37 1/1/38 3/17/39 5/18/40
