# This file uses centimeters as units for non-parametric coordinates.

mtllib server shelf.mtl
g default
v 195.225193 -0.468160 -150.000000
v 195.225193 199.531828 -150.000000
v 195.225193 199.531828 -250.000000
v 195.225193 -0.468160 -250.000000
v 195.225193 -0.468160 -239.999986
v 193.700440 150.980543 -239.999986
v 193.700440 150.980543 -158.999991
v 193.700440 189.531826 -158.999991
v 193.700440 189.531826 -239.999986
v 193.700440 8.531838 -158.999991
v 193.700440 8.531838 -239.999986
v 193.700440 46.633135 -158.999991
v 193.700440 46.633135 -239.999986
v 193.700440 103.862297 -239.999986
v 193.700440 103.862261 -158.999991
v 193.700440 142.413568 -158.999991
v 193.700440 142.413568 -239.999986
v 193.700440 55.100076 -239.999986
v 193.700440 55.100071 -158.999991
v 193.700440 93.201362 -158.999991
v 193.700440 93.201368 -239.999986
v 115.225193 -0.468160 -151.269913
v 116.495106 -0.468160 -150.000000
v 116.495106 199.531828 -150.000000
v 115.225193 198.261892 -151.269913
v 116.495106 199.531828 -250.000000
v 115.225193 198.261892 -248.730087
v 115.225193 190.801727 -241.269898
v 116.495106 189.531826 -239.999986
v 115.225193 149.710630 -241.269898
v 116.495106 150.980543 -239.999986
v 115.225193 190.801727 -157.730067
v 116.495106 189.531826 -158.999991
v 115.225193 149.710630 -157.730067
v 116.495106 150.980543 -158.999991
v 116.495106 -0.468160 -250.000000
v 115.225193 -0.468160 -248.730087
v 115.225193 7.261919 -157.730067
v 116.495106 8.531838 -158.999991
v 115.225193 7.261919 -241.269898
v 116.495106 8.531838 -239.999986
v 115.225193 102.592384 -241.269898
v 116.495106 103.862297 -239.999986
v 115.225193 102.592348 -157.730067
v 116.495106 103.862261 -158.999991
v 115.225193 94.471275 -157.730067
v 116.495106 93.201362 -158.999991
v 115.225193 53.830152 -157.730067
v 116.495106 55.100071 -158.999991
v 115.225193 94.471281 -241.269898
v 116.495106 93.201368 -239.999986
v 115.225193 53.830164 -241.269898
v 116.495106 55.100076 -239.999986
v 115.225193 143.683468 -157.730067
v 116.495106 142.413568 -158.999991
v 115.225193 143.683468 -241.269898
v 116.495106 142.413568 -239.999986
v 115.225193 47.903048 -157.730067
v 116.495106 46.633135 -158.999991
v 115.225193 47.903048 -241.269898
v 116.495106 46.633135 -239.999986
vt 0.498016 0.000077
vt 0.136100 0.307852
vt 0.258126 0.447648
vt 0.135835 0.554394
vt 0.132141 0.554143
vt 0.338907 0.032231
vt 0.716077 0.155773
vt 0.789662 0.342760
vt 0.000000 0.171261
vt 0.000000 0.402759
vt 0.420587 0.436421
vt 0.299523 0.450883
vt 0.392688 0.311763
vt 0.433268 0.942452
vt 0.915899 0.277563
vt 0.977179 0.356665
vt 0.344373 0.220787
vt 0.325506 0.664897
vt 0.579697 0.404268
vt 0.476999 0.606590
vt 0.664850 0.554765
vt 0.874598 0.405354
vt 0.992284 0.017334
vt 0.951125 0.021087
vt 0.971003 0.113408
vt 0.945659 0.334662
vt 0.867175 0.484820
vt 0.076983 0.000006
vt 0.972990 0.243426
vt 0.069875 0.010200
vt 0.859360 0.983014
vt 0.921284 0.195946
vt 0.524759 0.111101
vt 0.525399 0.098897
vt 0.983534 0.129345
vt 0.333440 0.856372
vt 0.380725 0.809266
vt 0.916764 0.101431
vt 0.649871 0.435608
vt 0.528641 0.830295
vt 0.743408 0.061374
vt 0.213183 0.749376
vt 0.403353 0.636561
vt 0.698987 0.210180
vt 0.859474 0.892399
vt 0.576625 0.810354
vt 0.672644 0.223049
vt 0.707624 0.787902
vt 0.464472 0.947948
vt 0.683280 0.913980
vt 0.642664 0.566519
vt 0.613362 0.000078
vt 0.888739 0.822597
vt 0.683878 0.916048
vt 0.564837 0.639412
vt 0.841978 0.589342
vt 0.527005 1.000000
vt 0.716077 0.779648
vt 0.707053 0.402191
vt 0.562189 0.408710
vt 0.349367 0.887704
vt 0.205078 0.883441
vt 0.206225 0.752724
vt 0.166487 0.890807
vt 0.065110 0.992617
vt 0.174920 0.854867
vt 0.012539 0.718964
vt 0.176810 0.523890
vt 0.934726 0.001307
vt 0.240514 0.000082
vt 0.224722 0.993039
vt 0.918821 0.212508
vt 0.645016 0.563697
vt 0.000000 0.083512
vt 0.929260 0.306805
vt 0.224116 0.976306
vt 0.825402 0.991803
vt 0.541157 0.083303
vt 0.996416 0.212143
vt 0.978456 0.000030
vt 0.245981 0.961958
vt 0.296972 0.453567
vt 0.934857 0.000066
vt 0.524666 0.082809
vt 0.997622 0.989038
vt 0.396246 0.970074
vt 0.869980 0.468313
vt 0.949638 0.000076
vt 0.443364 0.924300
vt 0.543926 0.000000
vt 0.976219 0.140858
vt 0.396852 0.986807
vt 0.412611 0.007184
vt 0.916058 0.000035
vt 0.979832 0.158981
vt 0.356626 0.237031
vt 0.832917 0.634914
vt 0.907395 0.407636
vt 0.847267 0.681517
vt 0.550640 0.000047
vt 0.349839 0.958354
vt 0.335728 0.868377
vt 0.983325 0.112930
vt 0.504926 0.836128
vt 0.519886 0.985770
vt 0.511610 0.000038
vt 0.953061 0.251196
vt 0.910933 0.084602
vt 0.859473 0.987490
vt 0.861065 0.970705
vt 0.350916 0.123859
vt 0.690450 0.947076
vt 0.688746 0.964689
vt 0.934902 0.086029
vt 0.959621 0.197361
vt 0.877528 0.337311
vt 0.999235 0.000038
vt 0.529789 0.015218
vt 0.951125 0.044299
vt 0.716077 0.397321
vt 0.264076 0.974731
vt 0.000000 0.681560
vt 0.972990 0.084764
vt 0.021415 0.079693
vt 0.902229 0.084385
vt 0.166052 0.727327
vt 0.825913 0.615810
vt 0.545133 0.081121
vt 0.827960 0.988059
vt 0.076527 0.647512
vt 0.180386 0.059073
vt 0.220992 0.960369
vt 0.994945 0.985378
vt 0.520600 0.080800
vt 0.302171 0.950503
vt 0.300497 0.175109
vt 0.306508 0.629102
vt 0.234967 0.002575
vt 0.000000 0.877651
vt 0.351835 0.962426
vt 0.554022 0.003068
vt 0.049196 0.915688
vt 0.508360 0.003202
vt 0.516712 0.989009
vt 0.179026 0.732119
vt 0.355079 0.118611
vt 0.222116 0.792068
vt 0.938599 0.083403
vt 0.691831 0.961365
vt 0.448231 0.519854
vt 0.721543 0.147562
vt 0.686124 0.995501
vt 0.857368 0.983473
vt 0.907395 0.081764
vt 0.837114 0.883035
vt 0.826147 0.277751
vt 0.678794 0.528269
vt 0.783505 0.097777
vt 0.677813 0.558665
vt 0.242978 0.003890
vt 0.938435 0.003918
vt 0.524759 0.920547
vt 0.912204 0.002424
vt 0.409842 0.010775
vt 0.871217 0.432867
vt 0.888110 0.227965
vt 0.767702 0.719210
vt 0.958408 0.125232
vt 0.248664 0.008015
vt 0.530225 0.135825
vt 0.541157 0.786903
vt 0.609264 0.881810
vt 0.415644 0.010972
vt 0.994855 0.081180
vt 0.833531 0.966549
vt 0.683543 0.874181
vt 0.755781 0.087302
vt 0.582211 0.719927
vt 0.563022 0.704346
vt 0.719821 0.399880
vt 0.954940 0.046751
vt 0.431833 0.876492
vt 0.995510 0.002625
vt 0.876364 0.341694
vt 0.787265 0.650074
vt 0.724597 0.807204
vt 0.709223 0.839830
vt 0.976714 0.082175
vt 0.003508 0.678686
vt 0.563022 0.292960
vt 0.830868 0.691846
vt 0.866157 0.162724
vt 0.164511 0.723062
vt 0.898302 0.082118
vt 0.323351 0.864276
vt 0.903502 0.842231
vt 0.785836 0.352827
vt 0.902442 0.657277
vt 0.366238 0.791356
vt 0.411897 0.636469
vt 0.977343 0.002692
vt 0.794016 0.000081
vt 0.890996 0.002969
vt 0.576318 0.665739
vt 0.565756 0.675500
vt 0.975076 0.807661
vt 0.270557 0.694366
vt 0.245981 0.011671
vt 0.954824 0.128011
vt 0.984465 0.100763
vt 0.998536 0.083829
vt 0.418197 0.014720
vt 0.502638 0.824124
vt 0.579545 0.662552
vt 0.894443 0.000022
vt 0.350079 0.136258
vt 0.973661 0.000045
vt 0.409968 0.632365
vt 0.688746 0.959386
vt 0.794067 0.343840
vt 0.000653 0.166773
vt 0.000000 0.106366
vt 0.122693 0.000082
vt 0.910808 0.410622
vt 0.718564 0.151981
vt 0.251447 0.472476
vt 0.402940 0.414169
vt 0.000251 0.399064
vt 0.269995 0.418046
vt 0.953321 0.000458
vt 0.122542 0.292318
vn 0.000000 -1.000000 0.000000
vn 0.000000 -1.000000 0.000000
vn 0.000000 -1.000000 0.000000
vn 0.000000 -1.000000 0.000000
vn 0.000000 -1.000000 0.000000
vn 0.000000 -1.000000 0.000000
vn 0.000000 -1.000000 0.000000
vn -1.000000 0.000000 0.000000
vn -1.000000 0.000000 0.000000
vn -1.000000 0.000000 0.000000
vn -1.000000 0.000000 0.000000
vn -1.000000 0.000000 0.000000
vn -1.000000 0.000000 0.000000
vn -1.000000 0.000000 0.000000
vn -1.000000 0.000000 0.000000
vn -1.000000 0.000000 0.000000
vn -1.000000 0.000000 0.000000
vn -1.000000 0.000000 0.000000
vn -1.000000 0.000000 0.000000
vn -1.000000 0.000000 0.000000
vn -1.000000 0.000000 0.000000
vn -1.000000 0.000000 0.000000
vn -1.000000 0.000000 0.000000
vn -0.707113 0.707100 0.000000
vn -0.707113 0.707100 0.000000
vn -0.707113 0.707100 0.000000
vn -0.707113 0.707100 0.000000
vn -0.707107 0.000000 -0.707107
vn -0.707107 0.000000 -0.707107
vn -0.707107 0.000000 -0.707107
vn -0.707107 0.000000 -0.707107
vn -0.707104 -0.707110 0.000000
vn -0.707104 -0.707110 0.000000
vn -0.707104 -0.707110 0.000000
vn -0.707104 -0.707110 0.000000
vn -0.707107 0.000000 0.707106
vn -0.707107 0.000000 0.707106
vn -0.707107 0.000000 0.707106
vn -0.707107 0.000000 0.707107
vn -0.707107 0.707106 0.000000
vn -0.707107 0.707106 0.000000
vn -0.707107 0.707106 0.000000
vn -0.707107 0.707106 0.000000
vn -0.707110 0.000000 -0.707103
vn -0.707110 0.000000 -0.707103
vn -0.707110 0.000000 -0.707103
vn -0.707110 0.000000 -0.707103
vn -0.707109 0.707105 0.000000
vn -0.707109 0.707105 0.000000
vn -0.707109 0.707105 0.000000
vn -0.707109 0.707105 0.000000
vn -0.707110 0.000000 -0.707104
vn -0.707110 0.000000 -0.707103
vn -0.707110 0.000000 -0.707103
vn -0.707110 0.000000 -0.707104
vn -0.707107 0.000000 0.707107
vn -0.707107 0.000000 0.707107
vn -0.707107 0.000000 0.707107
vn -0.707107 0.000000 0.707107
vn -0.707107 0.000000 0.707107
vn -0.707107 0.000000 0.707107
vn -0.707107 0.000000 0.707107
vn -0.707107 0.000000 0.707107
vn -0.707107 0.000000 0.707106
vn -0.707107 0.000000 0.707106
vn -0.707107 0.000000 0.707106
vn -0.707107 0.000000 0.707106
vn -0.707107 0.707106 0.000000
vn -0.707107 0.707106 0.000000
vn -0.707107 0.707106 0.000000
vn -0.707107 0.707106 0.000000
vn -0.707110 0.000000 -0.707104
vn -0.707110 0.000000 -0.707104
vn -0.707110 0.000000 -0.707104
vn -0.707110 0.000000 -0.707104
vn -0.707110 0.000000 -0.707103
vn -0.707110 0.000000 -0.707103
vn -0.707110 0.000000 -0.707103
vn -0.707110 0.000000 -0.707103
vn -0.707107 -0.707106 -0.000000
vn -0.707107 -0.707106 -0.000000
vn -0.707107 -0.707106 -0.000000
vn -0.707107 -0.707106 -0.000000
vn -0.707108 0.707106 0.000000
vn -0.707108 0.707106 0.000000
vn -0.707108 0.707106 0.000000
vn -0.707108 0.707106 0.000000
vn -0.707106 0.000000 0.707108
vn -0.707106 0.000000 0.707108
vn -0.707106 0.000000 0.707108
vn -0.707106 0.000000 0.707108
vn -0.707104 -0.707110 0.000000
vn -0.707104 -0.707110 0.000000
vn -0.707104 -0.707110 0.000000
vn -0.707104 -0.707110 0.000000
vn -0.707107 -0.707106 0.000000
vn -0.707107 -0.707106 0.000000
vn -0.707107 -0.707106 0.000000
vn -0.707107 -0.707106 0.000000
vn 0.000000 1.000000 0.000000
vn 0.000000 1.000000 0.000000
vn 0.000000 1.000000 0.000000
vn 0.000000 1.000000 0.000000
vn -1.000000 0.000000 0.000000
vn -1.000000 0.000000 0.000000
vn -1.000000 0.000000 0.000000
vn -1.000000 0.000000 0.000000
vn -1.000000 0.000000 0.000000
vn -1.000000 0.000000 0.000000
vn -1.000000 0.000000 0.000000
vn -1.000000 0.000000 0.000000
vn 0.000000 0.000000 1.000000
vn 0.000000 0.000000 1.000000
vn 0.000000 0.000000 1.000000
vn 0.000000 0.000000 1.000000
vn 0.000000 0.000000 -1.000000
vn 0.000000 0.000000 -1.000000
vn 0.000000 0.000000 -1.000000
vn 0.000000 0.000000 -1.000000
vn -1.000000 0.000000 0.000000
vn -1.000000 0.000000 0.000000
vn -1.000000 0.000000 0.000000
vn -1.000000 0.000000 0.000000
vn -1.000000 0.000000 0.000000
vn -1.000000 0.000000 0.000000
vn -1.000000 0.000000 0.000000
vn -1.000000 0.000000 0.000000
vn -1.000000 0.000000 0.000000
vn -1.000000 0.000000 0.000000
vn 0.000000 1.000000 0.000000
vn 0.000000 1.000000 0.000000
vn 0.000000 1.000000 0.000000
vn 0.000000 1.000000 0.000000
vn 0.000000 0.000000 -1.000000
vn 0.000000 0.000000 -1.000000
vn 0.000000 0.000000 -1.000000
vn 0.000000 0.000000 -1.000000
vn 0.000000 -1.000000 0.000000
vn 0.000000 -1.000000 0.000000
vn 0.000000 -1.000000 0.000000
vn 0.000000 -1.000000 0.000000
vn 0.000000 0.000000 1.000000
vn 0.000000 0.000000 1.000000
vn 0.000000 0.000000 1.000000
vn 0.000000 0.000000 1.000000
vn 0.000000 1.000000 0.000000
vn 0.000000 1.000000 0.000000
vn 0.000000 1.000000 0.000000
vn 0.000000 1.000000 0.000000
vn 0.000000 0.000000 -1.000000
vn 0.000000 0.000000 -1.000000
vn 0.000000 0.000000 -1.000000
vn 0.000000 0.000000 -1.000000
vn 0.000000 -1.000000 0.000000
vn 0.000000 -1.000000 0.000000
vn 0.000000 -1.000000 0.000000
vn 0.000000 -1.000000 0.000000
vn 0.000000 0.000000 1.000000
vn 0.000000 0.000000 1.000000
vn 0.000000 0.000000 1.000000
vn 0.000000 0.000000 1.000000
vn 0.000000 1.000000 0.000000
vn 0.000000 1.000000 0.000000
vn 0.000000 1.000000 0.000000
vn 0.000000 1.000000 0.000000
vn 0.000000 0.000000 -1.000000
vn 0.000000 0.000000 -1.000000
vn 0.000000 0.000000 -1.000000
vn 0.000000 0.000000 -1.000000
vn 0.000000 -1.000000 0.000000
vn 0.000000 -1.000000 0.000000
vn 0.000000 -1.000000 0.000000
vn 0.000000 -1.000000 0.000000
vn 0.000000 0.000000 1.000000
vn 0.000000 0.000000 1.000000
vn 0.000000 0.000000 1.000000
vn 0.000000 0.000000 1.000000
vn 0.000000 1.000000 0.000000
vn 0.000000 1.000000 0.000000
vn 0.000000 1.000000 0.000000
vn 0.000000 1.000000 0.000000
vn 0.000000 0.000000 -1.000000
vn 0.000000 0.000000 -1.000000
vn 0.000000 0.000000 -1.000000
vn 0.000000 0.000000 -1.000000
vn 0.000000 -1.000000 -0.000000
vn 0.000000 -1.000000 -0.000000
vn 0.000000 -1.000000 -0.000000
vn 0.000000 -1.000000 -0.000000
vn 0.000000 0.000000 1.000000
vn 0.000000 0.000000 1.000000
vn 0.000000 0.000000 1.000000
vn 0.000000 0.000000 1.000000
vn -1.000000 0.000000 0.000000
vn -1.000000 0.000000 0.000000
s off
g server_shelf_1 server_1
usemtl initialShadingGroup
f 5/2/1 1/3/2 23/4/3 22/5/4 37/10/5 36/228/6 4/231/7
f 6/198/8 7/206/9 8/196/10 9/191/11
f 11/178/12 10/186/13 12/176/14 13/171/15
f 14/158/16 15/166/17 16/156/18 17/151/19
f 18/138/20 19/146/21 20/136/22 21/131/23
f 25/7/24 24/225/25 26/220/26 27/8/27
f 27/9/28 26/221/29 36/12/30 37/82/31
f 28/122/32 29/189/33 33/193/34 32/126/35
f 29/188/36 28/123/37 30/217/38 31/201/39
f 31/200/40 30/218/41 34/214/42 35/204/43
f 32/125/44 33/194/45 35/203/46 34/215/47
f 38/116/48 39/184/49 41/180/50 40/120/51
f 39/183/52 38/117/53 58/211/54 59/174/55
f 40/119/56 41/181/57 61/168/58 60/209/59
f 24/224/60 25/98/61 22/88/62 23/230/63
f 42/69/64 43/161/65 57/148/66 56/114/67
f 43/160/68 42/70/69 44/93/70 45/164/71
f 45/163/72 44/94/73 54/108/74 55/154/75
f 46/84/76 47/134/77 49/143/78 48/106/79
f 47/133/80 46/85/81 50/77/82 51/129/83
f 48/105/84 49/144/85 53/140/86 52/101/87
f 51/128/88 50/78/89 52/100/90 53/141/91
f 55/153/92 54/109/93 56/113/94 57/149/95
f 59/173/96 58/212/97 60/208/98 61/169/99
f 2/227/100 3/20/101 26/18/102 24/226/103
s 1
f 50/79/104 37/24/105 52/35/106
f 46/86/107 44/92/108 42/71/109 50/76/104
f 44/95/108 25/16/110 54/29/111
s off
f 1/1/112 2/19/113 24/11/114 23/6/115
f 36/229/116 26/222/117 3/223/118 4/13/119
s 1
f 54/111/111 25/96/110 32/17/120 34/216/121
f 54/110/111 34/31/121 30/219/122 56/112/123
f 22/90/124 48/33/125 58/34/126 38/118/127
f 52/103/106 37/80/105 40/23/128 60/210/129
f 60/36/129 58/213/126 48/104/125 52/102/106
s off
f 31/43/130 35/205/131 7/40/132 6/199/133
f 35/37/134 33/195/135 8/42/136 7/207/137
f 33/39/138 29/190/139 9/44/140 8/197/141
f 29/41/142 31/202/143 6/38/144 9/192/145
f 41/51/146 39/185/147 10/48/148 11/179/149
f 39/45/150 59/175/151 12/50/152 10/187/153
f 59/47/154 61/170/155 13/52/156 12/177/157
f 61/49/158 41/182/159 11/46/160 13/172/161
f 43/59/162 45/165/163 15/56/164 14/159/165
f 45/53/166 55/155/167 16/58/168 15/167/169
f 55/55/170 57/150/171 17/60/172 16/157/173
f 57/57/174 43/162/175 14/54/176 17/152/177
f 53/67/178 49/145/179 19/64/180 18/139/181
f 49/61/182 47/135/183 20/66/184 19/147/185
f 47/63/186 51/130/187 21/68/188 20/137/189
f 51/65/190 53/142/191 18/62/192 21/132/193
s 1
f 25/97/110 27/73/194 28/21/195 32/127/120
f 37/81/105 22/89/124 38/14/127 40/121/128
f 30/30/122 28/124/195 27/74/194 56/28/123
f 22/15/124 25/99/110 44/27/108 46/87/107
f 22/91/124 46/26/107 48/107/125
f 50/32/104 42/72/109 27/22/194 37/83/105
f 27/75/194 42/25/109 56/115/123
