# This file uses centimeters as units for non-parametric coordinates.

mtllib walls.mtl
g default
v 195.000000 -0.468170 -500.000000
v 195.000000 -0.468170 0.000000
v 195.000000 349.531819 -500.000000
v 195.000000 349.531819 0.000000
v 205.000000 349.531819 -500.000000
v 205.000000 349.531819 0.000000
v 205.000000 -0.468170 -500.000000
v 205.000000 -0.468170 0.000000
vt 0.001901 0.998008
vt 0.001901 0.668529
vt 0.331341 0.668529
vt 0.331341 0.998008
vt 0.338911 0.668529
vt 0.668370 0.668529
vt 0.668370 0.997988
vt 0.338911 0.997988
vt 0.338911 0.002002
vt 0.668370 0.002002
vt 0.668370 0.331480
vt 0.338911 0.331480
vt 0.282988 0.335280
vt 0.612447 0.335280
vt 0.612447 0.664739
vt 0.282988 0.664739
vt 0.001892 0.001992
vt 0.331351 0.001992
vt 0.331351 0.331451
vt 0.001892 0.331451
vt 0.618270 0.664710
vt 0.618270 0.335270
vt 0.947709 0.335270
vt 0.947709 0.664710
vn -1.000000 0.000000 0.000000
vn -1.000000 0.000000 0.000000
vn -1.000000 0.000000 0.000000
vn -1.000000 0.000000 0.000000
vn 0.000000 1.000000 0.000000
vn 0.000000 1.000000 0.000000
vn 0.000000 1.000000 0.000000
vn 0.000000 1.000000 0.000000
vn 1.000000 0.000000 0.000000
vn 1.000000 0.000000 0.000000
vn 1.000000 0.000000 0.000000
vn 1.000000 0.000000 0.000000
vn 0.000000 -1.000000 0.000000
vn 0.000000 -1.000000 0.000000
vn 0.000000 -1.000000 0.000000
vn 0.000000 -1.000000 0.000000
vn 0.000000 0.000000 1.000000
vn 0.000000 0.000000 1.000000
vn 0.000000 0.000000 1.000000
vn 0.000000 0.000000 1.000000
vn -0.000000 0.000000 -1.000000
vn -0.000000 0.000000 -1.000000
vn -0.000000 0.000000 -1.000000
vn -0.000000 0.000000 -1.000000
s off
g wall3 blockout
usemtl initialShadingGroup
f 1/17/1 2/18/2 4/19/3 3/20/4
f 3/9/5 4/10/6 6/11/7 5/12/8
f 5/21/9 6/22/10 8/23/11 7/24/12
f 7/13/13 8/14/14 2/15/15 1/16/16
f 2/1/17 8/2/18 6/3/19 4/4/20
f 7/5/21 1/6/22 3/7/23 5/8/24
g default
v -205.000000 -0.468170 -500.000000
v -205.000000 -0.468170 0.000000
v -205.000000 349.531830 -500.000000
v -205.000000 349.531830 0.000000
v -195.000000 349.531830 -500.000000
v -195.000000 349.531830 0.000000
v -195.000000 -0.468170 -500.000000
v -195.000000 -0.468170 0.000000
vt 0.250000 0.000000
vt 0.500000 0.000000
vt 0.250000 0.250000
vt 0.500000 0.250000
vt 0.250000 0.500000
vt 0.500000 0.500000
vt 0.250000 0.750000
vt 0.500000 0.750000
vt 0.250000 1.000000
vt 0.500000 1.000000
vt 0.750000 0.000000
vt 0.750000 0.250000
vt 0.000000 -0.000000
vt 0.000000 0.250000
vn -1.000000 0.000000 0.000000
vn -1.000000 0.000000 0.000000
vn -1.000000 0.000000 0.000000
vn -1.000000 0.000000 0.000000
vn 0.000000 1.000000 0.000000
vn 0.000000 1.000000 0.000000
vn 0.000000 1.000000 0.000000
vn 0.000000 1.000000 0.000000
vn 1.000000 0.000000 0.000000
vn 1.000000 0.000000 0.000000
vn 1.000000 0.000000 0.000000
vn 1.000000 0.000000 0.000000
vn 0.000000 -1.000000 0.000000
vn 0.000000 -1.000000 0.000000
vn 0.000000 -1.000000 0.000000
vn 0.000000 -1.000000 0.000000
vn 0.000000 0.000000 1.000000
vn 0.000000 0.000000 1.000000
vn 0.000000 0.000000 1.000000
vn 0.000000 0.000000 1.000000
vn -0.000000 0.000000 -1.000000
vn -0.000000 0.000000 -1.000000
vn -0.000000 0.000000 -1.000000
vn -0.000000 0.000000 -1.000000
s off
g blockout wall2
usemtl initialShadingGroup
f 9/25/25 10/26/26 12/28/27 11/27/28
f 11/27/29 12/28/30 14/30/31 13/29/32
f 13/29/33 14/30/34 16/32/35 15/31/36
f 15/31/37 16/32/38 10/34/39 9/33/40
f 10/26/41 16/35/42 14/36/43 12/28/44
f 15/37/45 9/25/46 11/27/47 13/38/48
g default
v -200.000000 -0.468170 5.000000
v 200.000000 -0.468170 5.000000
v -200.000000 349.531830 5.000000
v 200.000000 349.531830 5.000000
v -200.000000 349.531830 -5.000000
v 200.000000 349.531830 -5.000000
v -200.000000 -0.468170 -5.000000
v 200.000000 -0.468170 -5.000000
vt 0.995425 0.670150
vt 0.731018 0.004793
vt 0.364699 0.336709
vt 0.332788 1.000000
vt 0.013960 0.015563
vt 0.694549 0.666559
vt 0.014313 0.345413
vt 0.344162 0.345060
vt 0.014666 0.675262
vt 0.344515 0.674909
vt 0.662637 0.670150
vt 0.662637 1.000000
vt 0.665576 0.670150
vt 0.665576 1.000000
vt 0.332788 0.670150
vt 0.731018 0.334643
vt 0.694549 0.336709
vt 0.401169 0.004793
vt 0.401169 0.334643
vt 0.995425 1.000000
vt 0.364699 0.666559
vt 0.343809 0.015210
vn 0.000000 0.000000 1.000000
vn 0.000000 0.000000 1.000000
vn 0.000000 0.000000 1.000000
vn 0.000000 0.000000 1.000000
vn 0.000000 1.000000 0.000000
vn 0.000000 1.000000 0.000000
vn 0.000000 1.000000 0.000000
vn 0.000000 1.000000 0.000000
vn 0.000000 0.000000 -1.000000
vn 0.000000 0.000000 -1.000000
vn 0.000000 0.000000 -1.000000
vn 0.000000 0.000000 -1.000000
vn 0.000000 -1.000000 0.000000
vn 0.000000 -1.000000 0.000000
vn 0.000000 -1.000000 0.000000
vn 0.000000 -1.000000 0.000000
vn 1.000000 0.000000 0.000000
vn 1.000000 0.000000 0.000000
vn 1.000000 0.000000 0.000000
vn 1.000000 0.000000 0.000000
vn -1.000000 0.000000 0.000000
vn -1.000000 0.000000 0.000000
vn -1.000000 0.000000 0.000000
vn -1.000000 0.000000 0.000000
s off
g blockout wall1
usemtl initialShadingGroup
f 17/56/49 18/40/50 20/54/51 19/57/52
f 19/41/53 20/55/54 22/44/55 21/59/56
f 21/43/57 22/60/58 24/46/59 23/45/60
f 23/45/61 24/46/62 18/48/63 17/47/64
f 18/53/65 24/49/66 22/50/67 20/42/68
f 23/51/69 17/39/70 19/58/71 21/52/72
