# This file uses centimeters as units for non-parametric coordinates.

mtllib chair inside.mtl
g default
v 14.688183 156.240896 -200.453846
v 38.454189 69.324850 -183.186848
v 41.608654 135.790823 -176.995884
v 34.700863 145.371145 -186.940175
v 27.938595 150.598135 -193.702427
v 27.938595 69.324850 -193.702427
v 20.879147 154.257177 -197.299397
v 46.999325 107.871145 -158.611271
v 46.052227 118.744161 -164.591084
v 44.264126 128.778768 -171.784199
v 45.205624 69.324850 -169.936436
v -0.000004 157.907583 -202.780232
v 34.422283 69.324850 -143.137135
v 18.096859 69.324850 -134.818936
v -0.000004 69.324850 -131.952664
v -0.000004 69.324850 -155.248234
v -14.688206 156.240896 -200.453846
v -20.879139 154.257177 -197.299397
v -27.938602 150.598135 -193.702412
v -34.700870 145.371145 -186.940159
v -0.000004 157.907583 -202.780232
v -41.608631 135.790884 -176.995884
v -44.264133 128.778768 -171.784169
v -46.052235 118.744161 -164.591054
v 14.688183 69.324850 -200.453846
v -0.000004 69.324850 -202.780232
v -18.096867 69.324850 -134.818936
v -14.688206 69.324850 -200.453846
v -45.205608 69.324850 -169.936421
v -38.454189 69.324850 -183.186833
v -27.938602 69.324850 -193.702412
v -34.422291 69.324850 -143.137135
v -46.999332 107.871145 -158.611271
v 47.530407 96.298025 -154.322590
v 47.392635 69.324850 -156.127919
v 47.400753 69.470007 -156.076649
v -47.393452 69.324850 -156.122914
v -47.389500 69.397421 -156.084843
v -47.530430 96.298025 -155.258030
v 47.342068 84.694868 -153.113850
v 47.530407 96.298025 -154.322590
v 47.400753 69.470007 -156.076649
v -47.342091 84.694868 -154.049290
v -47.389500 69.397421 -156.084843
v -47.530430 96.298025 -155.258030
vt 0.180937 0.636861
vt 0.023810 0.241009
vt 0.081257 0.161121
vt 0.272052 0.610777
vt 0.881981 0.009628
vt 0.980324 0.246304
vt 0.949191 0.319250
vt 0.908919 0.387800
vt 0.197778 0.923490
vt 0.681937 0.657475
vt 0.865945 0.867541
vt 0.417151 0.850363
vt 0.692296 0.785313
vt 0.442846 0.563602
vt 0.042763 0.962192
vt 0.485873 0.648047
vt 0.902546 0.518474
vt 0.363235 0.584933
vt 0.173031 0.076248
vt 0.212187 0.052010
vt 0.899674 0.626867
vt 0.881981 0.461738
vt 0.093608 0.663737
vt 0.537406 0.536360
vt 0.800721 0.000294
vt 0.195169 0.645161
vt 0.000000 0.193559
vt 0.012765 0.077475
vt 0.997759 0.595726
vt 0.998216 0.595980
vt 0.454421 0.559094
vt 0.300481 0.015951
vt 0.300491 0.015941
vt 0.636788 0.507407
vt 0.440628 0.000408
vt 0.495567 0.009076
vt 0.563287 0.024509
vt 0.654106 0.062376
vt 0.728039 0.481806
vt 0.819159 0.455739
vt 0.545604 0.533248
vt 0.394578 0.000318
vt 0.300497 0.015935
vt 0.130810 0.112452
vt 0.089690 0.662478
vt 0.000000 0.294109
vt 0.970592 0.000314
vt 1.000000 0.170073
vt 0.132813 0.964374
vt 0.131833 0.964440
vt 0.702237 0.095088
vt 0.765287 0.143520
vt 0.821515 0.199456
vt 0.862688 0.264362
vt 0.904820 0.431112
vt 0.828528 0.000192
vt 0.859541 0.094050
vt 0.861211 0.168388
vt 0.882939 0.170060
vt 0.863424 0.098310
vt 0.860600 0.000000
vt 0.715459 0.781429
vt 0.894328 0.288389
vt 0.195169 0.948082
vt 0.000000 0.951832
vt 0.721621 0.871936
vt 0.657477 0.696527
vt 0.197778 0.741654
vt 0.229850 0.732970
vt 0.097685 0.664291
vt 0.390210 0.790601
vt 0.197778 0.773179
vt 0.566606 0.527279
vt 0.197778 0.775027
vt 0.997313 0.331542
vt 0.232138 0.000291
vt 0.947158 0.558624
vt 0.716276 0.043321
vt 0.470390 0.603376
vt 0.912956 0.568290
vt 0.101561 0.659987
vt 0.313109 0.905223
vt 0.000000 0.648911
vt 0.815229 0.583841
vt 0.835530 0.451458
vt 0.517945 0.639362
vt 0.532771 0.732970
vt 0.369224 0.743883
vt 0.606749 0.705790
vt 0.713984 0.545190
vn -0.806183 -0.004006 0.591652
vn -0.775658 -0.005225 0.631132
vn -0.739628 -0.003288 0.673008
vn -0.652367 -0.003422 0.757896
vn -0.943905 -0.000623 0.330216
vn -0.982314 -0.003702 0.187203
vn -0.980492 -0.004459 0.196511
vn -0.931400 -0.001626 0.363994
vn 0.000000 1.000000 0.000000
vn 0.000000 1.000000 -0.000000
vn -0.000090 1.000000 -0.000107
vn -0.002207 0.999978 0.006272
vn -0.001053 0.999989 -0.004532
vn 0.000000 1.000000 0.000000
vn -0.000094 0.999987 -0.005070
vn 0.000000 1.000000 0.000000
vn 0.000000 1.000000 0.000000
vn -0.305205 0.000000 0.952287
vn -0.453991 0.000000 0.891006
vn -0.236294 0.000000 0.971682
vn 0.000000 1.000000 0.000000
vn 0.000000 1.000000 0.000000
vn 0.000000 1.000000 0.000000
vn 0.000047 0.999997 -0.002535
vn 0.000000 1.000000 0.000000
vn 0.000000 1.000000 0.000000
vn 0.000507 0.999997 -0.002398
vn 0.001103 0.999995 0.003135
vn 0.000096 0.999986 -0.005223
vn 0.000000 0.000000 1.000000
vn -0.000000 0.000000 0.000000
vn 0.000000 0.000000 0.000000
vn 0.652369 -0.003422 0.757894
vn 0.453992 0.000000 0.891006
vn 0.559806 0.000000 0.828624
vn 0.739629 -0.003288 0.673007
vn 0.789128 -0.005400 0.614205
vn 0.806184 -0.004006 0.591651
vn 0.939129 -0.000317 0.343565
vn 0.305206 0.000000 0.952286
vn 0.236295 0.000000 0.971681
vn 0.000000 0.000000 0.000000
vn -0.559808 0.000000 0.828622
vn -0.988959 -0.000544 0.148188
vn -0.988959 -0.000544 0.148188
vn -0.000194 0.999945 -0.010443
vn 0.943417 -0.004634 0.331578
vn 0.949788 -0.004133 0.312867
vn 0.987688 0.000000 0.156434
vn 0.987688 -0.000000 0.156434
vn 0.987688 -0.000000 0.156434
vn -0.997706 0.009208 -0.067074
vn -0.997706 0.009208 -0.067074
vn -0.997706 0.009208 -0.067074
vn 0.996667 0.007717 -0.081212
vn 0.996667 0.007717 -0.081212
vn 0.996667 0.007717 -0.081212
s 1
g chair_inside chair
usemtl initialShadingGroup
f 2/1/1 3/2/2 4/3/3 6/4/4
f 11/5/5 8/6/6 9/7/7 10/8/8
s 3
f 15/90/9 14/10/10 16/73/11
f 13/89/12 36/13/13 16/71/11
f 14/88/10 13/12/12 16/72/11
f 2/87/14 16/69/11 11/86/15
f 6/16/16 16/68/11 2/14/14
f 25/17/17 16/67/11 6/85/16
s 1
f 25/18/18 7/19/19 1/20/20
s 3
f 26/21/21 16/66/11 25/84/17
f 27/82/22 15/9/9 16/74/11
f 28/23/23 16/65/11 26/83/21
f 29/24/24 16/62/11 30/79/25
f 31/26/26 16/64/11 28/81/23
f 30/25/25 16/63/11 31/78/26
f 38/27/27 32/28/28 16/76/11
f 32/77/28 27/22/22 16/75/11
f 37/29/29 38/30/27 16/11/11 29/80/24
s 1
f 26/31/30 1/20/20 12/32/31 21/33/32
f 31/34/33 18/35/34 19/36/35
f 31/34/33 20/37/36 22/38/37 30/39/38
f 30/39/38 22/38/37 29/40/39
f 28/41/40 17/42/41 18/35/34
f 28/41/40 18/35/34 31/34/33
f 26/31/30 21/33/32 12/43/42 17/42/41
f 26/31/30 17/42/41 28/41/40
f 25/18/18 1/20/20 26/31/30
f 6/4/4 5/44/43 7/19/19
f 6/4/4 7/19/19 25/18/18
f 6/4/4 4/3/3 5/44/43
f 11/45/5 10/46/8 3/2/2
f 11/45/5 3/2/2 2/1/1
f 35/47/44 34/48/45 8/6/6 11/5/5
s 3
f 11/15/15 16/70/11 36/49/13 35/50/46
s 1
f 31/34/33 19/36/35 20/37/36
f 29/40/39 22/38/37 23/51/47 24/52/48
f 29/40/39 24/52/48 33/53/49
f 29/40/39 33/53/49 39/54/50 37/55/51
s off
f 42/56/52 40/57/53 41/58/54
f 45/59/55 43/60/56 44/61/57
